# xmcd CD database file
#
# Track frame offsets:
#	150
#	23092
#	53630
#	72186
#	93658
#	106172
#	137060
#
# Disc length: 2020 seconds
#
# Revision: 0
# Processed by: cddbd v1.5.2PL0 Copyright (c) Steve Scherf et al.
# Submitted via: CDex 1.51
#
DISCID=5607e207
DTITLE=Joe Diorio - Bonita
DYEAR=1980
DGENRE=Jazz
TTITLE0=Bonita
TTITLE1=If I Should Lose You
TTITLE2=Spring Can Really Hang You Up The Most
TTITLE3=Talla Sunshine - Naima Rainbow, Dance For Their Father
TTITLE4=Bloomdido
TTITLE5=Hello Young Lovers
TTITLE6=Send In The Clowns
EXTD=YEAR: 1980
EXTT0=
EXTT1=
EXTT2=
EXTT3=
EXTT4=
EXTT5=
EXTT6=
PLAYORDER=
